<svg width="128" height="32" viewBox="0 0 128 32" fill="none" xmlns="http://www.w3.org/2000/svg">
<g clip-path="url(#clip0_515_14)">
<g clip-path="url(#clip1_515_14)">
<path d="M16 32C24.8366 32 32 24.8366 32 16C32 7.16344 24.8366 0 16 0C7.16344 0 0 7.16344 0 16C0 24.8366 7.16344 32 16 32Z" fill="white"/>
<path fill-rule="evenodd" clip-rule="evenodd" d="M24.833 15.346C24.632 15.391 24.494 15.417 24.359 15.453C23.514 15.674 22.663 15.849 21.783 15.816C20.607 15.771 19.597 15.298 18.706 14.536C18.346 14.227 18.012 13.886 17.668 13.558C17.501 13.4 17.461 13.22 17.588 13.014L17.913 12.487L18.352 12.969C18.985 13.671 19.662 14.31 20.555 14.651C21.432 14.985 22.325 14.936 23.222 14.785C24.49 14.573 25.661 14.066 26.809 13.497C26.847 13.478 26.889 13.466 27 13.422C26.924 13.565 26.882 13.65 26.834 13.73C25.158 16.548 23.482 19.366 21.804 22.183C21.598 22.529 21.521 22.555 21.163 22.38C18.797 21.218 16.319 20.997 13.761 21.437C13.361 21.506 13.29 21.472 13.099 21.062C12.89 20.614 12.892 20.626 13.365 20.535C14.683 20.2775 16.0325 20.2226 17.367 20.372C18.616 20.512 19.861 20.696 21.007 21.284C21.171 21.369 21.258 21.298 21.34 21.162C22.067 19.948 22.794 18.734 23.525 17.522C23.916 16.873 24.315 16.229 24.708 15.582C24.742 15.526 24.769 15.467 24.833 15.346V15.346ZM7.179 15.467C7.347 15.75 7.515 16.033 7.685 16.315L11.049 21.895C11.209 22.161 11.209 22.169 10.932 22.296C10.335 22.571 10.409 22.642 10.044 22.031C8.754 19.866 7.466 17.699 6.178 15.533L5.134 13.778C5.084 13.695 5.044 13.605 5 13.518L5.039 13.466C5.186 13.531 5.334 13.592 5.479 13.66C6.362 14.073 7.255 14.457 8.201 14.691C9.415 14.993 10.614 15.028 11.771 14.451C12.491 14.092 13.084 13.563 13.618 12.96C14.473 11.992 15.167 10.906 15.796 9.774L15.949 9.5C16.032 9.624 16.085 9.718 16.152 9.8C16.521 10.252 16.434 10.654 16.123 11.122C15.429 12.166 14.73 13.2 13.806 14.048C12.98 14.806 12.054 15.378 10.966 15.639C10.112 15.844 9.254 15.803 8.397 15.644C8.005 15.571 7.615 15.489 7.224 15.411L7.179 15.467V15.467Z" fill="#0F1529"/>
</g>
<path d="M37.695 11.53C38.795 11.53 39.76 11.745 40.59 12.175C41.43 12.605 42.075 13.22 42.525 14.02C42.985 14.81 43.215 15.73 43.215 16.78C43.215 17.83 42.985 18.75 42.525 19.54C42.075 20.32 41.43 20.925 40.59 21.355C39.76 21.785 38.795 22 37.695 22H34.035V11.53H37.695ZM37.62 20.215C38.72 20.215 39.57 19.915 40.17 19.315C40.77 18.715 41.07 17.87 41.07 16.78C41.07 15.69 40.77 14.84 40.17 14.23C39.57 13.61 38.72 13.3 37.62 13.3H36.135V20.215H37.62ZM42.747 17.815C42.747 16.975 42.912 16.23 43.242 15.58C43.582 14.93 44.037 14.43 44.607 14.08C45.187 13.73 45.832 13.555 46.542 13.555C47.162 13.555 47.702 13.68 48.162 13.93C48.632 14.18 49.007 14.495 49.287 14.875V13.69H51.402V22H49.287V20.785C49.017 21.175 48.642 21.5 48.162 21.76C47.692 22.01 47.147 22.135 46.527 22.135C45.827 22.135 45.187 21.955 44.607 21.595C44.037 21.235 43.582 20.73 43.242 20.08C42.912 19.42 42.747 18.665 42.747 17.815ZM49.287 17.845C49.287 17.335 49.187 16.9 48.987 16.54C48.787 16.17 48.517 15.89 48.177 15.7C47.837 15.5 47.472 15.4 47.082 15.4C46.692 15.4 46.332 15.495 46.002 15.685C45.672 15.875 45.402 16.155 45.192 16.525C44.992 16.885 44.892 17.315 44.892 17.815C44.892 18.315 44.992 18.755 45.192 19.135C45.402 19.505 45.672 19.79 46.002 19.99C46.342 20.19 46.702 20.29 47.082 20.29C47.472 20.29 47.837 20.195 48.177 20.005C48.517 19.805 48.787 19.525 48.987 19.165C49.187 18.795 49.287 18.355 49.287 17.845ZM59.798 13.69V22H57.683V20.95C57.413 21.31 57.058 21.595 56.618 21.805C56.188 22.005 55.718 22.105 55.208 22.105C54.558 22.105 53.983 21.97 53.483 21.7C52.983 21.42 52.588 21.015 52.298 20.485C52.018 19.945 51.878 19.305 51.878 18.565V13.69H53.978V18.265C53.978 18.925 54.143 19.435 54.473 19.795C54.803 20.145 55.253 20.32 55.823 20.32C56.403 20.32 56.858 20.145 57.188 19.795C57.518 19.435 57.683 18.925 57.683 18.265V13.69H59.798ZM64.975 13.57C65.965 13.57 66.765 13.885 67.375 14.515C67.985 15.135 68.29 16.005 68.29 17.125V22H66.19V17.41C66.19 16.75 66.025 16.245 65.695 15.895C65.365 15.535 64.915 15.355 64.345 15.355C63.765 15.355 63.305 15.535 62.965 15.895C62.635 16.245 62.47 16.75 62.47 17.41V22H60.37V13.69H62.47V14.725C62.75 14.365 63.105 14.085 63.535 13.885C63.975 13.675 64.455 13.57 64.975 13.57ZM71.232 15.415V19.435C71.232 19.715 71.297 19.92 71.427 20.05C71.567 20.17 71.797 20.23 72.117 20.23H73.092V22H71.772C70.002 22 69.117 21.14 69.117 19.42V15.415H68.127V13.69H69.117V11.635H71.232V13.69H73.092V15.415H71.232ZM80.8274 17.665C80.8274 17.965 80.8074 18.235 80.7674 18.475H74.6924C74.7424 19.075 74.9524 19.545 75.3224 19.885C75.6924 20.225 76.1474 20.395 76.6874 20.395C77.4674 20.395 78.0224 20.06 78.3524 19.39H80.6174C80.3774 20.19 79.9174 20.85 79.2374 21.37C78.5574 21.88 77.7224 22.135 76.7324 22.135C75.9324 22.135 75.2124 21.96 74.5724 21.61C73.9424 21.25 73.4474 20.745 73.0874 20.095C72.7374 19.445 72.5624 18.695 72.5624 17.845C72.5624 16.985 72.7374 16.23 73.0874 15.58C73.4374 14.93 73.9274 14.43 74.5574 14.08C75.1874 13.73 75.9124 13.555 76.7324 13.555C77.5224 13.555 78.2274 13.725 78.8474 14.065C79.4774 14.405 79.9624 14.89 80.3024 15.52C80.6524 16.14 80.8274 16.855 80.8274 17.665ZM78.6524 17.065C78.6424 16.525 78.4474 16.095 78.0674 15.775C77.6874 15.445 77.2224 15.28 76.6724 15.28C76.1524 15.28 75.7124 15.44 75.3524 15.76C75.0024 16.07 74.7874 16.505 74.7074 17.065H78.6524ZM80.3202 17.815C80.3202 16.975 80.4852 16.23 80.8152 15.58C81.1552 14.93 81.6152 14.43 82.1952 14.08C82.7752 13.73 83.4202 13.555 84.1302 13.555C84.6702 13.555 85.1852 13.675 85.6752 13.915C86.1652 14.145 86.5552 14.455 86.8452 14.845V10.9H88.9752V22H86.8452V20.77C86.5852 21.18 86.2202 21.51 85.7502 21.76C85.2802 22.01 84.7352 22.135 84.1152 22.135C83.4152 22.135 82.7752 21.955 82.1952 21.595C81.6152 21.235 81.1552 20.73 80.8152 20.08C80.4852 19.42 80.3202 18.665 80.3202 17.815ZM86.8602 17.845C86.8602 17.335 86.7602 16.9 86.5602 16.54C86.3602 16.17 86.0902 15.89 85.7502 15.7C85.4102 15.5 85.0452 15.4 84.6552 15.4C84.2652 15.4 83.9052 15.495 83.5752 15.685C83.2452 15.875 82.9752 16.155 82.7652 16.525C82.5652 16.885 82.4652 17.315 82.4652 17.815C82.4652 18.315 82.5652 18.755 82.7652 19.135C82.9752 19.505 83.2452 19.79 83.5752 19.99C83.9152 20.19 84.2752 20.29 84.6552 20.29C85.0452 20.29 85.4102 20.195 85.7502 20.005C86.0902 19.805 86.3602 19.525 86.5602 19.165C86.7602 18.795 86.8602 18.355 86.8602 17.845ZM91.0904 16.75C91.0904 15.72 91.3204 14.8 91.7804 13.99C92.2504 13.17 92.8854 12.535 93.6854 12.085C94.4954 11.625 95.4004 11.395 96.4004 11.395C97.5704 11.395 98.5954 11.695 99.4754 12.295C100.355 12.895 100.97 13.725 101.32 14.785H98.9054C98.6654 14.285 98.3254 13.91 97.8854 13.66C97.4554 13.41 96.9554 13.285 96.3854 13.285C95.7754 13.285 95.2304 13.43 94.7504 13.72C94.2804 14 93.9104 14.4 93.6404 14.92C93.3804 15.44 93.2504 16.05 93.2504 16.75C93.2504 17.44 93.3804 18.05 93.6404 18.58C93.9104 19.1 94.2804 19.505 94.7504 19.795C95.2304 20.075 95.7754 20.215 96.3854 20.215C96.9554 20.215 97.4554 20.09 97.8854 19.84C98.3254 19.58 98.6654 19.2 98.9054 18.7H101.32C100.97 19.77 100.355 20.605 99.4754 21.205C98.6054 21.795 97.5804 22.09 96.4004 22.09C95.4004 22.09 94.4954 21.865 93.6854 21.415C92.8854 20.955 92.2504 20.32 91.7804 19.51C91.3204 18.7 91.0904 17.78 91.0904 16.75ZM103.714 10.9V22H101.614V10.9H103.714ZM105.354 12.7C104.984 12.7 104.674 12.585 104.424 12.355C104.184 12.115 104.064 11.82 104.064 11.47C104.064 11.12 104.184 10.83 104.424 10.6C104.674 10.36 104.984 10.24 105.354 10.24C105.724 10.24 106.029 10.36 106.269 10.6C106.519 10.83 106.644 11.12 106.644 11.47C106.644 11.82 106.519 12.115 106.269 12.355C106.029 12.585 105.724 12.7 105.354 12.7ZM106.389 13.69V22H104.289V13.69H106.389ZM114.689 17.665C114.689 17.965 114.669 18.235 114.629 18.475H108.554C108.604 19.075 108.814 19.545 109.184 19.885C109.554 20.225 110.009 20.395 110.549 20.395C111.329 20.395 111.884 20.06 112.214 19.39H114.479C114.239 20.19 113.779 20.85 113.099 21.37C112.419 21.88 111.584 22.135 110.594 22.135C109.794 22.135 109.074 21.96 108.434 21.61C107.804 21.25 107.309 20.745 106.949 20.095C106.599 19.445 106.424 18.695 106.424 17.845C106.424 16.985 106.599 16.23 106.949 15.58C107.299 14.93 107.789 14.43 108.419 14.08C109.049 13.73 109.774 13.555 110.594 13.555C111.384 13.555 112.089 13.725 112.709 14.065C113.339 14.405 113.824 14.89 114.164 15.52C114.514 16.14 114.689 16.855 114.689 17.665ZM112.514 17.065C112.504 16.525 112.309 16.095 111.929 15.775C111.549 15.445 111.084 15.28 110.534 15.28C110.014 15.28 109.574 15.44 109.214 15.76C108.864 16.07 108.649 16.505 108.569 17.065H112.514ZM119.327 13.57C120.317 13.57 121.117 13.885 121.727 14.515C122.337 15.135 122.642 16.005 122.642 17.125V22H120.542V17.41C120.542 16.75 120.377 16.245 120.047 15.895C119.717 15.535 119.267 15.355 118.697 15.355C118.117 15.355 117.657 15.535 117.317 15.895C116.987 16.245 116.822 16.75 116.822 17.41V22H114.722V13.69H116.822V14.725C117.102 14.365 117.457 14.085 117.887 13.885C118.327 13.675 118.807 13.57 119.327 13.57ZM125.584 15.415V19.435C125.584 19.715 125.649 19.92 125.779 20.05C125.919 20.17 126.149 20.23 126.469 20.23H127.444V22H126.124C124.354 22 123.469 21.14 123.469 19.42V15.415H122.479V13.69H123.469V11.635H125.584V13.69H127.444V15.415H125.584Z" fill="white"/>
</g>
<defs>
<clipPath id="clip0_515_14">
<rect width="128" height="32" fill="white"/>
</clipPath>
<clipPath id="clip1_515_14">
<rect width="32" height="32" fill="white"/>
</clipPath>
</defs>
</svg>
